<svg width="50" height="70" viewBox="0 0 50 70" fill="none" xmlns="http://www.w3.org/2000/svg">
<path d="M38.4886 3.63557C31.5416 -1.78971 13.7771 -0.400291 10.9322 4.56185L24.8923 8.23382L38.4886 3.63557Z" fill="url(#paint0_linear_1_7)"/>
<path d="M16.0605 2.96924C15.005 3.04363 14.3918 2.56228 13.9425 1.71688C13.5394 0.958337 13.2973 -0.183568 12.5046 0.0250297C7.5998 1.3218 8.7915 0.18413 5.55398 4.20678C3.69262 6.50921 2.34292 8.95279 1.32844 11.8022C-0.215343 16.1247 -0.427061 21.5236 0.763854 26.199C1.33726 28.475 2.72225 31.6243 4.00138 33.565C4.22192 33.8914 4.54832 34.4295 4.72475 34.7736C4.91 35.1088 5.14818 35.5322 5.25404 35.6999C5.3599 35.8675 5.6863 36.4232 5.97741 36.9349C6.85957 38.4787 9.18847 42.5366 11.0939 45.8447C12.0908 47.5649 13.2288 49.5409 13.6169 50.2378C14.2432 51.3317 15.1607 52.9196 16.3251 54.9309C16.5104 55.2485 17.0309 56.1571 17.4896 56.9599C17.9483 57.7627 18.5746 58.8477 18.8834 59.3858C19.1922 59.9151 19.6685 60.7532 19.942 61.2384C20.2243 61.7236 20.8947 62.8968 21.4417 63.8407C21.9886 64.7846 22.5444 65.755 22.6767 66.002C23.5412 67.5458 24.8203 69.7247 24.9174 69.8306C25.0232 69.9276 25.085 69.8747 25.3408 69.4777C25.5084 69.2131 25.8084 68.6838 26.0201 68.2956C26.2318 67.9075 26.6111 67.2282 26.8669 66.796C27.1228 66.3549 27.7226 65.3228 28.1902 64.5023C28.6665 63.6731 29.2576 62.6586 29.5046 62.2352C30.3868 60.7267 33.3243 55.619 34.2065 54.0488C34.5241 53.493 34.8152 52.9902 34.8505 52.9461C34.8858 52.8931 35.7238 51.4464 36.703 49.7262C37.6822 48.006 38.7584 46.1358 39.0848 45.58C39.4112 45.0243 39.8523 44.248 40.0729 43.8598C40.2934 43.4717 40.5845 42.9512 40.7345 42.713C40.8844 42.466 41.3696 41.6191 41.8284 40.8164C42.2783 40.0136 42.9134 38.9021 43.2398 38.3463C43.5662 37.7906 44.122 36.829 44.4837 36.2027C44.8365 35.5852 45.4981 34.456 45.9569 33.6885C48.3563 29.6659 49.362 26.8871 49.8825 22.8203C50.006 21.8852 50.0413 18.5066 49.9442 17.5715C49.5561 13.9282 48.7004 11.1317 47.0507 8.06181C45.1313 4.48966 42.3033 1.63458 38.5878 0.688345C38.2709 0.607627 37.6554 0.943266 36.206 1.71688C34.8971 2.41549 33.6965 1.46576 33.4603 2.18002C33.2185 2.91119 30.9109 3.48347 30.086 3.75782C29.1411 4.0721 28.2279 6.20833 27.8696 6.14973C27.4315 6.07808 27.279 4.20542 26.6456 3.75782C26.1098 3.37914 24.9718 4.26354 24.5946 4.20678C23.9877 4.11544 23.9694 2.92736 23.3375 2.97885C22.6386 3.0358 21.9875 3.8838 21.3196 3.75782C20.4763 3.6033 19.552 2.81395 18.6069 2.84164C17.6637 2.86927 16.651 2.92517 16.0605 2.96924ZM27.0434 10.7259C28.3666 11.017 29.831 11.6963 30.8455 12.5079C33.5272 14.6427 34.9299 18.1802 34.3741 21.3824C34.0654 23.1026 33.5184 24.3906 32.5216 25.705C30.7661 28.0251 27.9432 29.4365 25.0673 29.4365C22.562 29.4277 20.3213 28.5367 18.5305 26.8253C17.3043 25.6521 16.5545 24.4964 16.0605 22.9968C15.2401 20.5003 15.4077 18.0479 16.5633 15.719C17.8513 13.1342 20.4448 11.1758 23.1972 10.6906C23.6118 10.6201 24.0529 10.5407 24.1764 10.523C24.6174 10.4436 26.2671 10.5583 27.0434 10.7259Z" fill="url(#paint1_linear_1_7)"/>
<defs>
<linearGradient id="paint0_linear_1_7" x1="25" y1="0" x2="25" y2="69.8726" gradientUnits="userSpaceOnUse">
<stop stop-color="#7194BD"/>
<stop offset="1" stop-color="#7194BD" stop-opacity="0.53"/>
</linearGradient>
<linearGradient id="paint1_linear_1_7" x1="25" y1="69.8726" x2="25" y2="0" gradientUnits="userSpaceOnUse">
<stop offset="0.404302" stop-color="#BF1A1A"/>
<stop offset="1" stop-color="#FF3E3E"/>
</linearGradient>
</defs>
</svg>
