<svg width="32" height="47" viewBox="0 0 32 47" fill="none" xmlns="http://www.w3.org/2000/svg">
<path d="M29 7C21.8922 -1.5 10 -1.5 3.17769 6.59619L9 9.5L16.0431 8.5L21 9.5L29 7Z" fill="url(#paint0_linear_1_7)"/>
<path d="M10 6.5C9.3245 6.54761 6.28751 7.70061 6 7.15956C5.74202 6.67409 6.00731 5.3665 5.5 5.5C2.36092 6.32994 4.35424 3.70314 3.55455 4.69234C2.36328 6.1659 1.49947 7.72978 0.850198 9.55338C-0.137821 12.3198 -0.27332 15.7751 0.488865 18.7674C0.855844 20.224 1.74224 22.2395 2.56088 23.4816C2.70203 23.6905 2.91092 24.0349 3.02384 24.2551C3.1424 24.4696 3.29484 24.7406 3.36259 24.8479C3.43034 24.9552 3.63923 25.3109 3.82554 25.6383C4.39013 26.6263 5.88062 29.2234 7.10012 31.3406C7.7381 32.4415 8.46641 33.7062 8.71482 34.1522C9.11568 34.8523 9.70284 35.8685 10.4481 37.1558C10.5667 37.359 10.8998 37.9405 11.1933 38.4543C11.4869 38.9681 11.8878 39.6625 12.0854 40.0069C12.283 40.3457 12.5879 40.882 12.7629 41.1925C12.9435 41.5031 13.3726 42.2539 13.7227 42.858C14.0727 43.4622 14.4284 44.0832 14.5131 44.2413C15.0664 45.2293 15.885 46.6238 15.9471 46.6916C16.0149 46.7537 16.0544 46.7198 16.2181 46.4657C16.3254 46.2964 16.5173 45.9576 16.6528 45.7092C16.7883 45.4608 17.0311 45.026 17.1948 44.7494C17.3586 44.4671 17.7425 43.8065 18.0417 43.2815C18.3466 42.7508 18.7249 42.1015 18.8829 41.8305C19.4475 40.8651 21.3276 37.5961 21.8922 36.5912C22.0954 36.2355 22.2817 35.9137 22.3043 35.8855C22.3269 35.8516 22.8632 34.9257 23.4899 33.8248C24.1166 32.7238 24.8054 31.5269 25.0143 31.1712C25.2232 30.8155 25.5055 30.3187 25.6466 30.0703C25.7878 29.8219 25.9741 29.4888 26.0701 29.3363C26.166 29.1783 26.4766 28.6363 26.7702 28.1225C27.0581 27.6087 27.4646 26.8973 27.6735 26.5417C27.8824 26.186 28.2381 25.5706 28.4695 25.1697C28.6954 24.7745 29.1188 24.0518 29.4124 23.5607C30.9481 20.9862 31.5917 19.2077 31.9248 16.605C32.0038 16.0066 32.0264 13.8442 31.9643 13.2457C31.7159 10.914 31.1682 9.12431 30.1125 7.15956C28.884 4.87339 28.4479 7.76515 26.0701 7.15956C25.8672 7.1079 25.9276 6.00489 25 6.5C24.1623 6.94711 22.6512 6.81252 22.5 7.26965C22.3452 7.73759 20.269 8.32441 19.7411 8.5C19.1364 8.70114 18.501 8.77224 18.2717 8.73474C17.9913 8.68888 17.4054 8.28646 17 8C16.657 7.75764 13.8859 8.24965 13.6445 8.21333C13.2561 8.15487 14.0489 6.98568 13.6445 7.01863C13.1972 7.05507 12.9275 7.35027 12.5 7.26965C11.9603 7.17075 12.1048 6.58262 11.5 6.60034C10.8963 6.61802 10.3779 6.4718 10 6.5ZM17.3078 8.86459C18.1546 9.05091 19.0918 9.48563 19.7411 10.005C21.4574 11.3713 22.3551 13.6353 21.9994 15.6847C21.8018 16.7857 21.4518 17.61 20.8138 18.4512C19.6903 19.936 17.8836 20.8394 16.0431 20.8394C14.4397 20.8337 13.0056 20.2635 11.8595 19.1682C11.0748 18.4173 10.5949 17.6777 10.2787 16.7179C9.75365 15.1202 9.86092 13.5506 10.6005 12.0601C11.4248 10.4059 13.0847 9.15253 14.8462 8.84201C15.1115 8.79684 15.3938 8.74603 15.4729 8.73474C15.7552 8.68393 16.8109 8.75732 17.3078 8.86459Z" fill="url(#paint1_linear_1_7)"/>
<defs>
<linearGradient id="paint0_linear_1_7" x1="16" y1="0.573603" x2="16" y2="46.7184" gradientUnits="userSpaceOnUse">
<stop stop-color="#143964"/>
<stop offset="1" stop-color="white" stop-opacity="0.53"/>
</linearGradient>
<linearGradient id="paint1_linear_1_7" x1="16" y1="46.7185" x2="16" y2="2.00001" gradientUnits="userSpaceOnUse">
<stop offset="0.0364583" stop-color="#BF7D1A"/>
<stop offset="1" stop-color="#FF521C"/>
</linearGradient>
</defs>
</svg>
